<?xml version="1.0" standalone="no"?>
<!DOCTYPE svg PUBLIC "-//W3C//DTD SVG 20010904//EN"
 "http://www.w3.org/TR/2001/REC-SVG-20010904/DTD/svg10.dtd">
<svg version="1.0" xmlns="http://www.w3.org/2000/svg"
 width="2144.000000pt" height="1984.000000pt" viewBox="0 0 2144.000000 1984.000000"
 preserveAspectRatio="xMidYMid meet">

<g transform="translate(0.000000,1984.000000) scale(0.100000,-0.100000)"
fill="#000000" stroke="none">
<path d="M12564 16483 c16 -153 85 -465 116 -523 11 -20 44 -35 59 -25 23 13
54 123 57 200 l4 80 32 -3 c33 -4 68 -27 68 -44 0 -5 18 -57 40 -115 22 -59
40 -114 40 -122 0 -9 -20 -28 -44 -44 -64 -40 -118 -103 -157 -182 -30 -62
-34 -79 -34 -150 0 -44 4 -90 8 -102 8 -23 8 -24 -215 -166 -53 -34 -58 -40
-58 -73 0 -42 29 -95 65 -118 47 -31 80 -21 173 52 133 105 135 106 155 84 10
-11 181 -345 381 -743 200 -398 452 -897 559 -1109 209 -413 221 -446 220
-585 0 -99 -33 -221 -118 -440 -98 -251 -178 -395 -248 -446 -227 -167 -914
-290 -1192 -214 -127 35 -378 187 -468 284 -142 152 -165 358 -85 780 23 122
24 123 152 280 50 61 96 171 96 229 0 43 -44 142 -85 190 -48 57 -195 176
-330 266 -71 48 -151 102 -178 121 -60 43 -129 52 -252 36 -148 -20 -374 -48
-655 -82 -329 -39 -448 -37 -820 15 -326 45 -454 56 -670 56 -362 0 -538 -48
-662 -181 -27 -28 -48 -59 -48 -70 0 -11 23 -82 51 -157 139 -373 154 -432
130 -504 -15 -47 -151 -178 -220 -212 -29 -15 -83 -34 -120 -41 -133 -28 -253
-87 -313 -153 -38 -42 -103 -156 -139 -242 -12 -30 -38 -81 -57 -112 -43 -72
-39 -95 27 -137 87 -56 91 -109 15 -232 -62 -99 -124 -227 -124 -256 0 -49
142 -93 524 -163 148 -27 270 -51 272 -53 2 -2 -13 -51 -35 -108 -21 -57 -45
-132 -51 -167 -16 -81 -8 -293 15 -391 55 -236 226 -504 428 -671 91 -75 301
-182 412 -209 235 -58 457 -52 655 17 234 81 440 281 529 512 17 44 31 88 31
99 0 12 11 26 28 35 89 46 683 186 1065 251 247 42 485 68 1132 125 934 82
1127 115 1347 227 69 35 102 61 166 127 110 115 181 245 311 566 67 169 109
239 164 278 51 36 71 36 47 -1 -84 -132 -129 -248 -151 -389 -29 -182 16 -432
108 -612 146 -281 422 -514 731 -615 137 -45 206 -54 366 -48 208 7 343 47
493 146 155 102 270 246 332 417 82 225 65 509 -43 741 -33 69 -158 267 -177
278 -19 13 -8 25 24 25 52 0 64 13 42 47 -101 157 -234 299 -383 410 -202 151
-438 230 -845 281 -81 11 -150 22 -154 25 -3 4 5 11 18 16 146 57 179 87 179
161 0 60 -32 112 -335 535 -283 396 -537 733 -992 1316 -138 176 -319 376
-368 405 -61 35 -122 29 -173 -19 -15 -14 -25 -18 -33 -10 -14 14 -39 110 -39
151 0 36 -9 36 111 6 67 -17 169 -18 222 -3 97 27 143 215 101 417 -21 101
-58 170 -106 194 -70 36 -539 48 -621 16 -15 -6 -29 -9 -31 -7 -2 2 -24 56
-49 120 -55 141 -82 195 -100 202 -8 3 -35 8 -59 12 -40 6 -46 10 -57 43 -37
106 -145 242 -192 242 -21 0 -21 -3 -15 -67z m1178 -716 c17 -58 17 -282 0
-330 -18 -49 -59 -97 -83 -97 -23 0 -23 7 -3 103 15 73 14 77 -5 116 -34 65
-23 203 21 263 l21 31 19 -22 c10 -13 23 -42 30 -64z m-535 -73 c67 -22 140
-73 158 -111 17 -34 20 -99 6 -107 -5 -4 -12 12 -16 34 -16 94 -101 155 -215
155 -51 0 -86 -9 -163 -38 -54 -21 -103 -37 -109 -35 -18 6 108 79 171 99 70
22 108 23 168 3z m-311 -276 c12 -19 -147 -150 -163 -134 -9 8 127 146 144
146 6 0 15 -5 19 -12z m422 -10 c-7 -20 -100 -78 -126 -78 -40 0 -20 23 49 57
72 36 82 38 77 21z m-233 -248 c0 -19 -6 -26 -24 -28 -30 -5 -45 10 -36 38 10
32 60 24 60 -10z m456 -195 c-12 -90 -8 -141 17 -190 8 -16 61 -102 117 -190
56 -88 154 -243 218 -345 64 -102 146 -232 183 -289 37 -58 95 -152 129 -210
34 -58 104 -171 155 -251 142 -221 255 -447 281 -559 36 -155 29 -395 -16
-576 -25 -100 -114 -304 -144 -328 -12 -10 -13 -9 -6 8 34 84 58 162 89 292
46 191 55 324 32 473 -14 91 -25 123 -83 245 -36 77 -116 222 -177 323 -158
260 -183 301 -214 355 -43 76 -125 215 -257 432 -375 619 -380 629 -380 730 0
56 6 82 29 130 15 33 30 54 33 47 3 -7 0 -51 -6 -97z m-2039 -1222 c57 -19
168 -82 168 -94 0 -4 -104 -7 -232 -8 -128 0 -413 -5 -634 -11 -368 -10 -407
-10 -475 6 l-74 18 40 8 c22 5 162 13 310 18 300 10 476 28 640 65 121 27 172
27 257 -2z m-2885 -271 c133 -233 212 -268 623 -279 126 -3 327 1 521 11 639
32 805 24 1479 -73 325 -47 505 -68 653 -77 110 -7 135 -17 70 -28 -66 -10
-144 -7 -389 19 -132 13 -304 29 -384 35 -80 6 -208 20 -285 30 -265 36 -409
43 -757 37 -235 -4 -389 -11 -523 -26 -461 -50 -752 -63 -825 -38 -50 18 -112
129 -202 367 -15 41 -28 76 -28 78 0 12 24 -17 47 -56z m2695 -512 c79 -12
224 -34 323 -50 99 -17 190 -30 202 -30 28 0 29 -18 4 -68 -104 -207 -153
-464 -120 -624 15 -70 65 -179 133 -286 30 -48 60 -109 67 -135 11 -45 10 -49
-12 -73 -40 -43 -69 -51 -194 -57 -167 -8 -199 -21 -310 -127 -157 -150 -200
-184 -268 -217 -107 -53 -166 -57 -511 -38 -432 23 -1291 81 -1566 105 -242
21 -440 47 -382 49 56 2 779 -29 1172 -50 495 -26 992 -36 1085 -20 110 18
180 58 300 171 58 55 118 106 133 114 50 26 136 47 251 61 62 8 119 20 127 26
23 19 17 46 -35 163 -76 173 -86 211 -85 361 0 149 18 241 87 445 23 69 42
130 42 135 0 6 -27 10 -60 11 -33 0 -87 10 -120 22 -33 11 -143 43 -244 71
-250 69 -253 74 -19 41z m-1880 -16 c5 -4 -33 -23 -85 -44 -257 -101 -527
-293 -815 -580 -89 -89 -162 -159 -162 -156 0 7 208 301 255 361 221 282 268
328 380 375 134 56 158 60 293 55 68 -3 128 -8 134 -11z m1134 -59 c49 -8 119
-23 155 -34 82 -26 235 -120 308 -191 123 -118 236 -302 296 -483 54 -162 83
-367 53 -367 -8 0 -29 53 -52 128 -103 340 -189 511 -335 665 -126 133 -364
245 -596 281 l-90 14 85 1 c47 1 126 -6 176 -14z m4845 -289 c153 -26 332 -74
420 -111 167 -72 274 -138 300 -186 10 -20 10 -20 -28 -1 -80 41 -241 100
-328 120 -49 11 -171 30 -270 42 -397 46 -461 58 -490 86 -29 29 -15 67 29 75
36 7 274 -10 367 -25z m-7133 -63 c-23 -32 -62 -81 -86 -110 -23 -29 -62 -87
-86 -130 -23 -42 -48 -79 -54 -81 -17 -5 -15 66 3 118 l15 43 -38 -7 c-22 -3
-42 -3 -45 0 -15 16 72 140 120 172 29 18 143 50 186 51 l28 1 -43 -57z m6803
-492 c13 -10 51 -62 84 -116 33 -53 101 -152 151 -218 50 -67 108 -153 128
-192 l38 -70 -53 58 c-30 32 -59 57 -66 57 -37 -1 -45 -167 -11 -257 27 -71
118 -167 193 -203 71 -34 211 -35 271 -3 105 56 157 139 157 251 0 100 -31
172 -107 248 -70 70 -135 99 -243 110 -37 4 -76 13 -85 22 -10 8 -39 54 -64
101 -26 47 -62 109 -80 137 -19 28 -34 56 -34 61 0 15 103 33 189 33 272 -1
532 -157 685 -410 71 -116 99 -217 99 -355 0 -144 -31 -245 -107 -343 -86
-111 -168 -165 -311 -207 -231 -67 -507 0 -689 166 -175 161 -254 318 -263
524 -7 163 32 300 115 397 56 67 55 60 17 124 -19 32 -40 63 -45 68 -12 12
-13 36 -1 36 4 0 19 -8 32 -19z m1197 -37 c32 -18 112 -118 163 -204 49 -80
106 -216 130 -310 24 -91 38 -300 21 -300 -8 0 -12 22 -12 64 0 247 -170 569
-390 739 l-35 27 48 0 c27 0 61 -7 75 -16z m-2548 -150 c0 -14 -103 -144 -139
-177 -134 -121 -387 -177 -811 -180 l-225 -2 -50 26 c-28 15 -61 36 -75 48
l-25 21 60 -8 c33 -4 164 -7 290 -7 478 1 728 63 893 220 63 60 82 74 82 59z
m465 -313 c-24 -69 -100 -175 -177 -246 -123 -113 -276 -174 -496 -195 -59 -5
-206 -19 -327 -30 -557 -52 -1205 -154 -1850 -290 -114 -24 -134 -22 -255 24
-47 19 -94 36 -104 40 -36 12 -2 25 134 50 334 62 630 101 1100 146 58 5 161
17 230 25 151 18 552 58 865 85 337 30 469 68 623 177 86 61 212 181 244 231
27 43 32 36 13 -17z m-5506 -210 c12 -8 12 -13 -1 -33 -8 -12 -28 -57 -45 -98
-78 -189 -101 -391 -64 -557 11 -51 36 -130 56 -175 19 -45 33 -83 31 -85 -14
-14 -110 192 -138 296 -31 112 -31 343 0 458 23 84 55 168 74 190 12 15 66 17
87 4z m437 -85 c341 -69 554 -122 714 -178 148 -52 200 -93 200 -159 l0 -32
-47 7 c-27 3 -81 9 -121 12 l-73 7 -25 42 c-36 63 -115 132 -192 168 -59 28
-77 32 -152 32 -76 0 -92 -4 -145 -32 -77 -40 -113 -75 -138 -132 -32 -75 -77
-139 -118 -167 -39 -27 -69 -27 -69 1 0 16 -54 21 -77 7 -20 -13 -33 -60 -23
-86 12 -31 26 -39 80 -46 37 -4 46 -9 52 -30 47 -167 51 -174 98 -197 44 -22
56 -23 523 -29 539 -8 506 -2 439 -87 -55 -69 -125 -123 -216 -167 -101 -48
-160 -60 -290 -60 -251 0 -454 105 -621 320 -51 66 -106 173 -130 255 -13 43
-19 94 -19 180 0 105 3 129 26 193 39 109 103 212 132 212 12 0 99 -15 192
-34z m495 -386 c168 -11 339 -20 380 -20 105 -1 184 -18 166 -36 -8 -8 -848
15 -941 26 -44 6 -81 12 -84 15 -9 8 19 34 41 37 25 5 23 5 438 -22z m631
-285 c21 -46 6 -50 -240 -56 -237 -6 -392 -2 -392 12 0 4 15 18 33 31 30 22
44 23 227 29 397 11 359 12 372 -16z"/>
<path d="M15607 11853 c-4 -6 13 -13 41 -17 118 -16 249 -82 332 -167 84 -86
129 -233 110 -353 -6 -36 -13 -72 -16 -80 -3 -9 -2 -16 4 -16 17 0 52 121 52
182 0 211 -224 442 -443 456 -44 2 -77 0 -80 -5z"/>
<path d="M15090 11671 c-17 -32 -40 -159 -40 -220 0 -94 19 -171 66 -269 37
-78 59 -108 129 -177 69 -69 100 -92 177 -129 51 -25 122 -52 158 -60 81 -20
228 -20 297 -2 63 17 143 54 143 67 0 12 -10 11 -77 -6 -73 -19 -210 -19 -293
1 -92 21 -233 93 -311 157 -69 57 -143 157 -179 243 -36 84 -51 170 -51 295 0
66 -2 119 -4 119 -2 0 -9 -9 -15 -19z"/>
<path d="M9120 10381 c0 -19 97 -93 171 -130 92 -46 193 -66 294 -58 74 7 157
30 190 55 22 16 20 16 -137 -8 -139 -20 -331 29 -462 119 -48 33 -56 36 -56
22z"/>
<path d="M10810 15923 c-694 -20 -1286 -134 -1915 -371 -239 -90 -614 -280
-823 -415 -264 -172 -453 -313 -642 -477 -246 -214 -518 -511 -696 -760 -107
-149 -119 -166 -144 -206 l-20 -30 -212 -17 c-346 -28 -657 -47 -918 -56 -238
-9 -250 -11 -409 -50 -90 -22 -237 -50 -328 -61 -261 -33 -374 -81 -514 -220
-68 -67 -94 -101 -122 -160 -45 -94 -66 -177 -71 -277 l-5 -78 -53 -12 c-85
-20 -353 -61 -478 -73 -272 -26 -470 -147 -592 -360 -70 -121 -97 -315 -64
-462 42 -191 188 -397 361 -510 120 -79 282 -143 420 -168 l70 -12 1 -82 c1
-52 9 -107 24 -156 93 -307 368 -550 695 -614 75 -15 397 -41 815 -67 102 -7
301 -12 442 -13 l258 -1 5 -30 c21 -132 30 -180 60 -325 128 -614 406 -1294
773 -1890 254 -413 578 -826 942 -1203 l128 -133 -23 -79 c-41 -142 -66 -326
-66 -474 -1 -455 161 -743 524 -929 53 -28 102 -52 107 -54 5 -2 17 -43 25
-93 48 -277 147 -471 327 -639 l88 -82 -16 -150 c-17 -159 -14 -377 6 -489 52
-282 222 -561 435 -715 459 -331 1010 -259 1304 170 56 81 65 90 93 90 17 0
62 9 100 21 39 11 71 19 73 17 1 -2 19 -40 38 -86 114 -264 286 -463 519 -599
111 -65 334 -123 473 -123 134 0 297 44 410 111 68 39 73 41 170 44 55 2 132
11 170 20 108 26 243 96 319 166 71 65 159 189 199 280 20 45 37 66 83 100 33
23 77 58 99 77 136 119 225 329 225 526 0 118 -18 197 -80 363 l-52 136 21 81
c26 101 41 271 32 355 -5 41 -3 64 4 66 5 2 80 18 165 35 261 53 516 119 720
186 107 35 204 68 215 73 11 5 45 19 75 31 89 36 339 146 418 185 559 272
1153 728 1502 1153 34 41 37 43 129 57 256 42 460 154 681 375 136 136 203
226 278 371 l48 94 34 -5 c19 -3 94 -4 165 -4 108 2 146 6 225 29 115 32 126
33 220 5 57 -17 111 -23 222 -27 163 -6 238 3 363 43 l81 26 94 -30 c277 -88
576 -88 812 -1 288 106 477 268 600 514 72 143 98 263 99 448 0 203 -41 382
-132 576 -39 83 -39 84 -28 149 32 204 -76 500 -249 684 -111 117 -303 234
-469 285 -80 24 -103 27 -248 27 -145 0 -168 -3 -248 -27 -148 -45 -287 -126
-389 -225 l-57 -56 -48 28 c-147 83 -388 173 -543 200 l-96 18 -23 85 c-29
105 -123 295 -190 383 -54 72 -167 183 -249 245 -28 21 -54 46 -56 55 -3 8
-18 71 -35 140 -152 637 -443 1319 -799 1869 -145 225 -352 513 -461 639 -208
243 -289 331 -455 498 -223 223 -478 448 -696 613 -328 250 -758 520 -1118
702 l-178 91 -62 -34 c-34 -18 -62 -35 -62 -38 1 -10 189 -119 345 -200 877
-455 1697 -1153 2301 -1960 440 -587 748 -1195 963 -1895 24 -81 106 -404 127
-502 2 -13 29 -41 60 -64 256 -189 394 -400 455 -696 l13 -62 55 -6 c248 -28
548 -134 733 -259 l53 -36 25 33 c106 138 271 249 446 299 110 31 268 31 378
0 87 -25 201 -75 256 -113 186 -127 282 -248 347 -434 29 -82 42 -265 25 -329
-10 -36 -8 -47 22 -115 66 -147 86 -202 114 -303 24 -92 27 -119 27 -263 -1
-135 -4 -172 -24 -240 -91 -322 -362 -560 -716 -630 -187 -38 -384 -21 -607
52 l-112 36 -45 -17 c-144 -55 -168 -60 -356 -60 -176 0 -182 1 -276 32 l-96
32 -64 -25 c-122 -48 -281 -66 -404 -45 -33 6 -82 15 -108 19 l-48 8 -53 -112
c-61 -129 -145 -260 -229 -358 -112 -130 -310 -277 -448 -333 -90 -37 -242
-74 -303 -74 -50 0 -52 -1 -93 -53 -63 -81 -319 -342 -446 -455 -356 -318
-837 -623 -1257 -797 -36 -15 -78 -33 -95 -40 -315 -143 -762 -270 -1294 -370
-47 -8 -86 -17 -89 -19 -2 -3 2 -45 8 -95 16 -117 8 -316 -16 -396 -30 -98
-24 -162 30 -305 26 -68 54 -151 61 -185 46 -192 -20 -415 -161 -544 -36 -32
-90 -71 -122 -87 -55 -26 -58 -30 -76 -86 -44 -140 -168 -298 -283 -362 -101
-57 -187 -79 -324 -81 -114 -2 -129 -4 -149 -23 -42 -39 -182 -100 -270 -118
-176 -35 -418 15 -588 123 -130 83 -272 237 -355 385 -37 66 -86 198 -107 286
-6 28 -17 52 -22 52 -6 0 -44 -16 -85 -35 -94 -44 -138 -55 -233 -58 l-75 -2
-45 -85 c-67 -126 -184 -240 -310 -303 -126 -62 -214 -81 -350 -73 -128 7
-197 24 -315 80 -107 51 -258 168 -329 255 -105 129 -174 276 -212 447 -23
106 -23 400 0 578 9 71 15 130 14 130 -110 65 -227 187 -304 319 -62 106 -111
272 -129 442 -7 58 -8 61 -53 90 -26 16 -79 44 -119 61 -235 102 -378 274
-445 532 -20 75 -23 112 -23 267 0 101 6 213 13 255 16 93 55 232 82 296 l21
48 -154 155 c-339 344 -575 634 -860 1059 -366 547 -683 1253 -821 1832 -58
246 -84 370 -101 500 -10 69 -21 129 -25 134 -5 5 -80 8 -167 7 -205 -2 -612
14 -983 39 -471 32 -507 38 -645 105 -79 38 -197 126 -256 192 -50 56 -102
146 -130 229 -19 56 -24 89 -24 179 0 61 3 126 8 146 l7 36 -82 7 c-292 25
-514 133 -668 325 -86 108 -139 252 -140 380 0 79 36 202 79 269 103 158 278
252 501 267 113 8 248 29 395 61 66 14 145 30 175 36 84 16 83 16 75 41 -14
43 -17 193 -6 249 28 133 109 249 232 328 91 59 155 79 307 95 164 18 206 26
382 72 125 32 152 35 355 44 368 15 1095 66 1203 84 28 5 42 20 109 123 178
273 486 627 738 852 90 81 306 256 369 301 26 19 61 43 76 54 16 11 61 42 102
69 40 27 91 61 113 76 56 37 210 126 335 193 496 264 1137 462 1735 536 294
37 442 44 840 38 384 -5 498 -13 810 -58 198 -28 715 -136 789 -165 11 -4 24
39 39 125 2 16 6 15 -298 84 -254 58 -516 101 -770 127 -208 20 -570 42 -659
38 -28 -1 -94 -3 -146 -5z"/>
<path d="M10766 15288 c-9 -102 -26 -606 -26 -744 l0 -115 68 3 67 3 2 45 c1
25 2 64 2 88 l1 42 95 0 c82 0 95 -2 95 -17 0 -9 10 -47 22 -85 l22 -68 73 0
c78 0 83 4 64 52 -5 13 -25 75 -44 138 -19 63 -49 165 -67 225 -35 120 -113
366 -136 430 -8 23 -14 48 -14 58 0 15 -13 17 -109 17 l-109 0 -6 -72z m148
-180 c51 -171 106 -357 106 -362 0 -3 -31 -6 -70 -6 l-70 0 0 225 c0 124 2
225 4 225 3 0 16 -37 30 -82z"/>
<path d="M10265 15329 c-77 -10 -160 -21 -183 -24 l-44 -7 7 -36 c12 -73 26
-103 43 -98 25 7 234 37 237 34 4 -5 -28 -198 -75 -456 -41 -230 -41 -234 -26
-294 8 -33 18 -63 20 -66 3 -2 56 3 118 12 62 9 155 20 207 25 51 6 95 12 98
14 2 3 -1 32 -8 66 -15 71 -6 69 -179 47 -58 -7 -107 -11 -110 -9 -4 4 11 98
81 493 29 163 31 206 9 283 -13 43 1 42 -195 16z"/>
<path d="M11450 15344 c-66 -24 -89 -40 -113 -77 -23 -35 -27 -52 -27 -112 0
-133 15 -162 155 -301 74 -72 130 -138 140 -159 37 -90 7 -163 -63 -151 -54 8
-73 33 -79 105 l-6 61 -70 0 -69 0 4 -67 c9 -155 95 -233 255 -233 87 0 138
22 168 74 32 56 39 101 25 177 -18 97 -51 149 -168 257 -112 104 -141 148
-142 218 0 49 23 74 69 74 46 0 81 -38 81 -88 0 -39 0 -39 46 -46 70 -9 104
-7 104 6 0 6 -5 40 -11 76 -13 74 -54 129 -121 163 -38 20 -149 34 -178 23z"/>
<path d="M9745 15249 c-44 -11 -123 -29 -175 -41 -52 -12 -99 -25 -104 -29 -8
-7 19 -106 34 -123 5 -5 54 3 112 17 154 38 143 39 140 -13 -2 -48 -13 -180
-37 -482 -11 -133 -13 -192 -5 -205 6 -10 16 -36 24 -58 7 -22 20 -40 27 -39
12 1 269 60 371 85 l37 9 -19 55 c-11 31 -21 59 -24 64 -5 7 -146 -18 -249
-44 -27 -7 -28 -7 -22 31 6 45 33 397 42 559 5 99 3 117 -17 173 -26 70 -19
68 -135 41z"/>
<path d="M9193 15101 c-29 -8 -53 -21 -53 -28 0 -7 17 -52 39 -100 86 -196
171 -392 196 -453 23 -55 135 -311 139 -317 1 -1 32 7 69 19 61 18 67 22 61
42 -7 21 -142 336 -254 591 -33 77 -73 168 -87 203 -29 68 -30 68 -110 43z"/>
<path d="M8810 14961 c-41 -14 -222 -90 -228 -95 -2 -3 31 -72 75 -153 44 -81
109 -202 143 -268 35 -66 87 -160 115 -210 29 -49 67 -118 85 -153 36 -69 32
-68 118 -31 47 20 52 37 23 77 -24 36 -145 272 -140 275 2 1 34 17 71 34 128
61 149 144 75 291 -92 183 -146 234 -251 239 -33 1 -72 -2 -86 -6z m95 -133
c47 -21 148 -215 128 -247 -11 -18 -44 -35 -84 -45 -22 -5 -28 0 -47 37 -26
50 -80 149 -107 194 -10 18 -17 34 -14 36 2 2 24 11 49 20 25 8 46 16 47 16 1
1 14 -4 28 -11z"/>
<path d="M7505 12979 c-630 -28 -1302 -72 -1565 -104 -69 -8 -132 -14 -140
-12 -8 1 -58 -2 -112 -6 -75 -6 -109 -5 -156 7 -70 19 -110 13 -247 -34 -125
-43 -228 -68 -380 -94 l-130 -23 65 -6 c285 -28 712 -42 1340 -41 587 0 793 5
1245 30 97 5 258 27 368 50 82 17 165 67 147 89 -24 29 38 93 120 125 30 12
57 24 59 26 7 6 -417 2 -614 -7z"/>
<path d="M7215 12153 c-806 -11 -1799 -55 -2493 -109 -154 -12 -206 -12 -253
-3 -77 15 -151 7 -269 -30 -53 -16 -131 -32 -175 -36 -61 -6 -86 -13 -107 -30
-24 -20 -42 -23 -175 -30 -269 -13 -233 -28 112 -45 589 -29 798 -34 1420 -34
1096 -1 1754 35 1890 102 61 30 87 53 75 67 -8 10 -8 20 -1 33 15 27 73 77
110 93 17 8 31 17 31 21 0 5 -1 7 -2 6 -2 -1 -75 -3 -163 -5z"/>
<path d="M7505 11293 c-435 -9 -1436 -70 -1890 -115 -134 -13 -272 -21 -352
-20 -129 3 -137 2 -366 -53 -130 -30 -283 -61 -341 -67 -59 -7 -101 -15 -94
-19 15 -8 364 -33 713 -50 127 -7 392 -12 590 -12 392 0 1243 27 1395 44 125
14 335 56 370 74 39 20 72 65 66 89 -8 30 29 72 89 101 30 14 55 28 55 30 0 3
-24 4 -52 3 -29 -1 -111 -4 -183 -5z"/>
<path d="M16724 10268 c-90 -10 -137 -25 -251 -78 -303 -143 -545 -411 -693
-767 -22 -52 -40 -102 -40 -109 0 -21 -13 -18 -91 22 -226 113 -285 359 -140
573 21 31 57 76 79 100 39 43 40 46 26 73 -22 43 -52 44 -131 4 -139 -69 -243
-155 -320 -264 -171 -239 -99 -489 182 -630 71 -35 192 -76 274 -93 l59 -13 5
-145 c5 -157 18 -225 66 -326 59 -125 170 -224 311 -276 75 -28 98 -32 195
-33 88 -1 124 3 180 21 92 29 218 102 302 174 38 31 69 56 70 55 4 -3 -46
-279 -63 -349 -13 -53 -21 -68 -38 -72 -152 -34 -482 -121 -552 -146 -189 -67
-307 -148 -345 -237 -26 -59 -25 -146 3 -219 43 -118 206 -238 386 -284 103
-26 248 -26 334 1 118 36 225 122 302 242 94 148 172 355 201 531 5 34 11 40
73 71 82 41 178 112 236 171 23 25 45 45 49 45 4 0 13 -13 21 -29 26 -50 105
-122 164 -149 48 -23 71 -27 147 -27 76 0 99 5 145 26 70 33 147 98 205 173
l45 58 19 -44 c69 -161 296 -244 464 -170 68 30 156 101 206 166 l43 56 66
-61 c161 -147 327 -200 521 -165 162 29 275 112 321 234 18 47 21 73 18 148
-3 82 -8 99 -46 179 -24 49 -63 120 -87 159 -104 168 -120 239 -80 357 23 70
25 84 15 110 -29 68 -119 104 -202 80 -81 -25 -144 -114 -243 -346 -62 -146
-109 -236 -131 -257 -11 -9 -45 -26 -78 -38 -67 -26 -133 -80 -153 -127 -7
-18 -13 -55 -13 -82 0 -42 -6 -56 -39 -99 -90 -114 -143 -146 -203 -123 -55
21 -63 49 -62 221 1 132 6 178 33 309 35 174 36 189 17 235 -19 47 -74 77
-154 86 -53 6 -80 15 -125 44 -94 60 -144 78 -238 83 -143 9 -255 -36 -375
-148 -141 -134 -232 -346 -250 -579 -8 -108 -21 -130 -135 -231 -61 -55 -149
-119 -162 -119 -1 0 1 42 6 93 5 50 6 174 3 274 -5 176 -4 183 18 225 114 213
126 240 126 284 0 88 -47 134 -138 134 -36 0 -60 -7 -95 -30 -70 -44 -83 -71
-141 -281 -33 -118 -176 -282 -300 -344 -59 -30 -78 -35 -140 -35 -47 0 -85 7
-111 19 -48 21 -115 94 -145 157 -28 56 -52 196 -48 276 l3 63 109 13 c447 52
840 281 985 575 115 233 43 445 -192 563 -77 39 -178 54 -283 42z m183 -207
c59 -27 77 -66 71 -155 -15 -212 -242 -457 -531 -572 -92 -36 -285 -80 -298
-67 -11 12 37 166 82 262 84 180 246 382 373 467 68 45 168 83 221 83 22 0 59
-8 82 -18z m1189 -956 c59 -63 65 -174 17 -375 -16 -71 -110 -270 -146 -310
-88 -99 -173 -95 -223 9 -23 47 -23 227 0 326 42 180 130 336 211 371 17 7 47
13 69 14 31 0 45 -6 72 -35z m1310 -506 c53 -157 -6 -319 -116 -319 -104 0
-197 160 -188 323 4 65 11 85 73 209 l68 137 72 -148 c40 -82 81 -173 91 -202z
m-2736 -673 c0 -2 -11 -33 -25 -70 -99 -264 -250 -436 -381 -436 -59 0 -99 24
-124 75 -25 52 -25 78 1 132 44 91 173 175 398 259 114 43 131 48 131 40z"/>
<path d="M13219 10069 c-95 -14 -167 -70 -244 -189 -86 -132 -165 -379 -204
-635 -5 -38 -13 -89 -16 -112 -4 -24 -7 -43 -8 -43 -1 0 -26 9 -56 20 -172 66
-412 -26 -573 -219 -48 -57 -132 -225 -154 -306 -8 -33 -18 -100 -21 -149 l-6
-89 -61 -62 c-38 -38 -83 -72 -120 -89 -58 -28 -166 -47 -166 -30 0 5 9 25 19
45 68 127 99 347 67 482 -33 140 -103 241 -210 306 -223 134 -511 96 -701 -92
-131 -131 -182 -261 -192 -492 -6 -124 -7 -132 -36 -175 -58 -84 -139 -157
-194 -173 -91 -27 -160 3 -203 89 -24 46 -25 57 -24 209 1 153 21 343 59 564
8 46 15 85 15 87 0 2 50 4 111 4 96 0 115 3 140 20 38 28 49 82 23 112 -18 19
-26 20 -126 15 -59 -4 -109 -3 -111 1 -2 4 9 59 24 122 15 63 28 129 29 147 0
46 -47 95 -131 137 -136 68 -171 59 -213 -51 -25 -68 -65 -217 -86 -325 l-11
-58 -50 0 c-65 0 -99 -30 -99 -89 0 -48 7 -53 71 -53 40 1 49 -2 49 -17 0 -9
-14 -109 -31 -221 -27 -173 -32 -235 -33 -400 -1 -183 0 -199 23 -253 40 -99
93 -155 200 -209 108 -55 178 -72 271 -66 123 7 272 102 371 237 l25 34 75
-75 c80 -81 128 -110 227 -139 183 -52 350 -24 492 84 43 32 48 33 115 29 136
-7 301 47 391 130 l43 39 34 -53 c132 -206 357 -264 564 -147 30 17 94 74 150
133 l98 103 40 -64 c45 -73 130 -145 204 -174 103 -39 240 -34 332 12 63 32
139 99 190 169 l50 68 73 -74 c243 -247 618 -225 832 49 104 133 145 262 144
452 0 131 -12 189 -55 276 -46 95 -157 193 -261 231 -82 30 -245 36 -334 13
-194 -50 -360 -208 -433 -413 -28 -79 -31 -100 -33 -224 l-2 -137 -46 -70
c-52 -78 -92 -115 -151 -142 -52 -24 -77 -24 -126 1 -74 38 -114 134 -139 329
l-10 73 110 207 c159 300 292 623 337 816 25 108 23 220 -6 275 -38 73 -68
105 -130 144 -68 41 -125 55 -192 45z m165 -211 c21 -30 20 -70 -4 -186 -36
-177 -71 -282 -202 -602 -84 -203 -98 -231 -98 -190 0 48 30 346 40 405 56
314 110 486 174 563 33 38 68 42 90 10z m890 -869 c110 -96 124 -465 27 -691
-24 -58 -95 -136 -137 -154 -59 -25 -126 11 -166 90 -63 124 -64 456 -2 606
26 60 90 136 136 159 61 30 100 27 142 -10z m-1560 -75 c8 -10 16 -66 20 -141
3 -68 13 -176 22 -239 l16 -115 -43 -72 c-54 -91 -142 -179 -203 -202 -41 -16
-50 -16 -83 -4 -81 31 -118 136 -110 308 10 200 74 358 183 447 66 54 165 63
198 18z m-1458 -21 c80 -52 124 -320 86 -530 -12 -65 -16 -72 -41 -78 -67 -15
-131 -80 -131 -136 0 -15 9 -38 21 -53 24 -30 19 -43 -27 -62 -50 -21 -76 -17
-122 16 -53 38 -70 72 -93 184 -43 208 -3 453 96 588 58 79 151 110 211 71z"/>
<path d="M8194 8956 c-92 -34 -151 -72 -218 -141 -201 -204 -295 -618 -195
-853 23 -52 119 -151 172 -175 149 -71 301 -33 434 107 38 39 78 85 89 101
l22 30 11 -30 c21 -57 36 -80 77 -121 58 -59 136 -87 244 -88 74 -1 93 3 142
27 64 32 186 148 212 201 20 42 13 80 -17 101 -35 24 -61 18 -102 -26 -98
-102 -154 -122 -198 -69 -57 67 -58 196 -2 495 14 77 27 161 27 186 2 90 -62
150 -169 154 -41 2 -68 12 -130 48 -107 62 -158 77 -256 76 -60 0 -99 -6 -143
-23z m262 -175 c52 -31 68 -90 61 -219 -6 -123 -35 -231 -96 -358 -81 -169
-196 -243 -262 -168 -50 57 -64 139 -49 275 15 132 38 209 95 324 43 86 57
105 99 133 56 37 105 42 152 13z"/>
<path d="M15445 7654 c-22 -2 -73 -6 -112 -10 l-73 -6 0 -51 c0 -29 3 -82 6
-119 8 -78 23 -90 80 -63 28 13 41 14 69 5 43 -14 56 -30 62 -77 8 -58 -24
-93 -84 -93 -28 0 -58 8 -77 19 -34 21 -47 18 -65 -16 -10 -19 -8 -24 15 -39
66 -44 171 -48 229 -10 84 55 88 202 7 261 -21 15 -43 20 -94 20 l-68 0 0 52
0 53 78 0 c90 0 105 7 100 46 -3 31 -9 33 -73 28z"/>
<path d="M14950 7620 c-45 -21 -90 -57 -90 -72 0 -4 11 -15 25 -24 23 -15 26
-15 56 10 34 29 84 34 115 12 14 -11 19 -26 19 -63 0 -42 -7 -58 -50 -118 -27
-39 -68 -90 -91 -114 -24 -24 -45 -52 -47 -61 -10 -40 4 -43 162 -35 l151 7 0
35 0 34 -95 -3 c-52 -2 -95 -1 -95 1 0 2 22 27 49 57 60 66 101 145 101 197 0
114 -108 184 -210 137z"/>
<path d="M14599 7587 c-72 -49 -105 -131 -96 -242 13 -146 95 -237 202 -221
87 13 135 85 121 180 -17 113 -142 160 -223 84 l-23 -21 0 24 c0 43 19 93 45
122 29 30 73 36 114 13 23 -13 27 -12 44 10 22 28 16 41 -29 60 -51 21 -115
18 -155 -9z m130 -253 c43 -55 13 -144 -49 -144 -34 0 -76 41 -85 82 -6 24 -2
35 21 59 37 39 84 40 113 3z"/>
<path d="M14065 7568 c-41 -15 -85 -47 -85 -62 0 -7 8 -21 19 -30 18 -16 21
-16 56 9 45 30 88 32 115 5 23 -23 26 -72 6 -89 -8 -6 -33 -17 -56 -24 -23 -7
-42 -15 -41 -19 1 -5 1 -17 1 -28 0 -16 9 -21 51 -26 63 -8 89 -32 89 -79 0
-28 -5 -37 -30 -50 -40 -21 -71 -19 -124 7 -37 18 -47 19 -60 8 -32 -25 -19
-50 40 -77 62 -28 133 -29 189 -2 38 18 75 74 75 113 0 41 -32 91 -69 110
l-30 16 30 29 c24 24 29 38 29 76 0 38 -5 52 -28 75 -44 44 -116 59 -177 38z"/>
<path d="M13757 7528 c-82 -135 -157 -288 -157 -320 0 -19 6 -20 108 -17 l107
4 3 -57 3 -58 40 0 40 0 -2 63 c-3 61 -2 62 24 65 22 3 27 8 27 33 0 28 -7 33
-41 30 -19 -2 -24 26 -35 182 l-6 97 -49 0 c-40 0 -51 -4 -62 -22z m45 -260
c-2 -5 -28 -8 -57 -8 l-54 0 52 99 52 99 5 -91 c3 -51 4 -95 2 -99z"/>
<path d="M13365 7533 c-75 -18 -115 -62 -115 -123 0 -39 24 -86 51 -101 l21
-11 -25 -26 c-35 -39 -47 -65 -47 -109 0 -48 20 -78 70 -103 115 -59 265 25
244 135 -4 24 -20 50 -44 73 l-38 35 24 35 c41 60 25 146 -34 176 -34 17 -81
25 -107 19z m80 -86 c8 -12 15 -34 15 -49 0 -32 -19 -78 -33 -78 -24 0 -87 46
-98 71 -28 69 73 117 116 56z m-10 -206 c16 -9 36 -29 45 -44 13 -24 13 -28
-6 -54 -27 -36 -100 -45 -127 -15 -28 30 -30 73 -7 110 22 36 36 37 95 3z"/>
<path d="M12857 7468 c-13 -21 -111 -205 -143 -268 -7 -14 -11 -36 -7 -49 6
-22 7 -23 109 -16 l104 7 0 -38 c0 -72 8 -85 49 -82 l36 3 -3 63 c-4 61 -4 62
22 62 22 0 26 4 26 30 0 27 -3 30 -30 30 -26 0 -30 4 -30 27 0 15 -5 78 -11
140 l-12 113 -48 0 c-40 0 -51 -4 -62 -22z m52 -214 l1 -41 -52 -6 c-28 -4
-54 -5 -56 -3 -2 3 18 46 45 98 l48 93 7 -50 c3 -27 6 -68 7 -91z"/>
<path d="M12486 7468 c-66 -4 -121 -9 -123 -11 -2 -2 0 -57 3 -121 6 -99 10
-118 25 -127 14 -7 27 -5 48 6 31 16 88 20 107 7 20 -13 34 -50 34 -91 0 -32
-5 -44 -24 -56 -41 -27 -111 -21 -149 14 -18 15 -20 14 -38 -8 -29 -35 -24
-46 34 -72 122 -54 249 -2 264 109 8 61 -13 118 -54 149 -32 24 -45 28 -100
27 l-63 -1 0 47 c0 45 2 48 31 54 17 3 56 6 85 6 l54 0 0 34 c0 19 -3 36 -7
38 -5 2 -62 0 -127 -4z"/>
<path d="M9980 7449 c-105 -22 -139 -44 -120 -80 18 -33 54 -33 154 1 92 30
153 70 141 90 -9 15 -68 11 -175 -11z"/>
<path d="M12080 7438 c-84 -43 -123 -159 -96 -288 26 -124 79 -180 172 -180
58 0 106 26 129 69 19 38 19 111 1 156 -34 81 -151 100 -216 35 -18 -18 -20
-18 -20 -2 1 41 23 109 42 130 24 24 84 30 119 11 16 -8 25 -7 40 7 26 24 24
37 -10 57 -50 30 -110 32 -161 5z m114 -249 c22 -17 26 -28 26 -69 0 -38 -5
-54 -22 -70 -25 -23 -37 -25 -73 -8 -26 12 -65 73 -65 102 0 18 67 66 91 66 9
0 28 -9 43 -21z"/>
<path d="M11095 7421 c-102 -14 -179 -17 -360 -13 -304 6 -301 7 -651 -176
-55 -29 -123 -55 -170 -66 -143 -32 -209 -55 -269 -94 -92 -59 -180 -146 -270
-267 -98 -132 -152 -183 -237 -226 -246 -123 -368 -243 -420 -412 -30 -99 -23
-266 15 -350 49 -107 155 -199 332 -285 50 -25 93 -49 98 -56 10 -15 0 -108
-25 -231 -31 -157 -15 -270 50 -338 64 -67 141 -77 198 -24 53 48 63 124 40
292 -10 70 -16 128 -14 130 2 2 35 -18 74 -45 l70 -49 19 -156 c15 -128 17
-198 12 -383 -4 -125 -11 -261 -17 -302 -59 -416 -62 -447 -58 -562 4 -101 9
-124 32 -172 68 -140 214 -191 291 -102 52 58 66 123 66 301 0 86 -3 184 -6
218 -3 34 -12 161 -20 282 -15 220 -29 406 -41 564 -6 76 -5 84 10 78 34 -13
254 -178 319 -239 l68 -64 -3 -219 c-3 -216 -2 -222 24 -306 31 -95 72 -160
117 -184 63 -32 147 -9 187 52 33 51 29 221 -8 371 -6 23 -8 45 -4 49 3 3 29
-16 58 -44 55 -51 124 -95 240 -151 36 -18 88 -52 115 -76 61 -55 164 -121
211 -137 43 -13 184 -83 257 -126 l50 -29 6 -220 c6 -226 10 -249 57 -340 42
-81 141 -142 211 -129 82 16 121 64 121 153 0 70 -26 212 -49 266 -11 25 -18
46 -16 46 3 0 30 -21 61 -46 31 -25 95 -63 142 -85 70 -32 98 -52 152 -110 66
-70 67 -70 115 -67 64 4 82 29 95 131 8 61 17 91 44 135 19 31 40 79 47 105
19 78 6 244 -30 380 -43 164 -46 204 -26 343 10 71 15 142 11 176 -7 66 -66
233 -142 399 -113 248 -116 258 -121 414 -2 77 -8 160 -13 185 -6 25 -52 127
-103 228 l-92 183 -6 177 c-5 172 -6 179 -39 257 -26 63 -48 95 -102 151 -37
39 -68 77 -68 85 0 8 8 28 17 44 12 21 17 55 17 115 0 205 -140 478 -279 540
-48 22 -181 50 -227 49 -18 -1 -91 -9 -163 -18z m358 -111 c75 -35 131 -120
198 -298 33 -87 39 -114 39 -180 0 -94 -17 -127 -59 -117 -14 3 -68 31 -119
62 -227 136 -341 144 -525 37 l-82 -49 -215 0 c-243 0 -249 -2 -373 -83 -45
-30 -79 -63 -102 -98 -34 -52 -96 -109 -143 -134 -13 -6 -70 -31 -126 -54
-126 -52 -205 -111 -242 -180 -89 -169 -122 -192 -267 -183 -115 6 -189 -11
-234 -55 -18 -18 -34 -30 -37 -27 -2 2 -11 18 -20 36 -20 40 -51 51 -76 28
-18 -16 -22 -16 -65 9 -53 32 -89 31 -93 -1 -2 -16 7 -28 35 -47 21 -13 51
-38 66 -55 33 -36 52 -39 69 -11 34 54 53 8 68 -165 6 -71 12 -144 15 -162 l4
-32 -62 39 c-227 143 -332 314 -250 410 24 29 25 35 15 63 -14 39 -7 72 23
113 19 24 22 39 18 76 -5 44 -4 47 51 101 42 41 89 72 179 118 171 86 270 167
357 294 135 195 208 249 405 300 73 19 147 50 277 115 97 49 210 99 250 110
80 22 220 27 439 14 103 -6 256 8 349 31 8 2 53 3 100 1 62 -3 98 -9 133 -26z
m-215 -520 c23 -6 102 -39 175 -74 73 -35 157 -70 187 -79 48 -14 64 -26 113
-83 32 -37 67 -85 78 -107 28 -53 51 -171 43 -213 l-6 -35 -47 8 c-25 4 -95 8
-156 7 -133 0 -194 -22 -254 -90 -74 -85 -103 -256 -66 -398 46 -175 201 -347
370 -412 38 -14 76 -19 155 -19 95 0 110 3 157 27 l51 27 12 -52 c7 -29 44
-131 82 -227 39 -96 84 -213 101 -260 l31 -85 1 -265 c0 -257 1 -269 28 -375
38 -149 39 -296 2 -400 -33 -92 -46 -89 -113 25 -43 75 -98 114 -182 130 -72
14 -117 45 -164 114 -31 44 -46 57 -73 62 -92 17 -115 -110 -61 -351 46 -208
58 -323 39 -353 -15 -25 -64 -10 -88 27 -37 55 -43 94 -53 356 -11 276 -21
329 -73 396 -48 63 -93 82 -209 89 -89 6 -101 9 -135 36 -25 20 -56 64 -89
127 -76 146 -130 192 -257 222 -123 28 -152 48 -212 140 -41 62 -63 83 -105
95 -27 8 -35 6 -55 -14 -31 -31 -38 -86 -25 -187 43 -325 48 -439 24 -499 -26
-65 -66 -49 -101 40 -15 39 -18 84 -18 350 -1 315 -7 374 -45 450 -32 63 -108
116 -215 150 -82 26 -112 48 -144 104 -68 118 -164 161 -202 90 -11 -22 -14
-93 -14 -383 0 -316 3 -388 28 -645 34 -345 35 -526 2 -590 -39 -77 -73 -74
-115 10 -39 78 -39 220 -1 526 26 205 31 283 31 455 0 293 -37 655 -82 793
-24 75 -103 141 -197 166 -53 13 -65 14 -73 2 -16 -24 -2 -314 21 -417 26
-116 29 -246 5 -255 -31 -12 -54 -6 -86 23 -45 40 -48 106 -14 271 20 101 26
168 32 349 l7 224 29 33 c24 27 40 34 101 45 97 17 162 43 224 91 41 31 61 58
99 131 25 51 56 103 68 115 30 34 82 58 162 77 108 24 190 69 268 147 141 141
193 177 295 208 64 20 86 22 179 16 136 -9 190 2 322 63 136 64 143 66 208 51z
m-1800 -1316 c32 -22 114 -154 96 -154 -4 0 -35 21 -70 47 -59 43 -64 50 -64
85 0 42 5 45 38 22z m443 -353 c46 -56 96 -88 191 -121 31 -12 71 -31 90 -43
38 -25 74 -92 84 -154 l6 -42 -48 45 c-71 65 -224 179 -301 224 -36 22 -70 45
-75 52 -10 17 -10 101 1 96 4 -1 28 -27 52 -57z m669 -411 c0 -4 18 -34 40
-68 52 -82 103 -117 198 -138 42 -9 86 -21 97 -27 41 -20 84 -71 106 -126 13
-31 33 -76 46 -100 13 -24 22 -46 20 -48 -2 -2 -24 12 -48 30 -62 47 -123 81
-204 114 -81 33 -138 71 -212 141 -50 46 -53 53 -63 118 -14 100 -13 125 5
118 8 -4 15 -9 15 -14z m853 -641 c31 -8 42 -18 58 -52 10 -23 19 -52 19 -64
0 -21 -3 -20 -52 17 -29 22 -87 58 -128 81 l-75 40 70 -6 c39 -3 87 -10 108
-16z m406 -203 c45 -58 98 -88 181 -101 50 -8 88 -42 132 -117 14 -26 49 -63
76 -85 38 -28 51 -45 51 -65 1 -44 -19 -44 -56 0 -28 34 -47 45 -116 67 -86
28 -119 47 -229 128 -66 49 -66 50 -78 116 -6 36 -13 76 -16 89 -7 36 11 26
55 -32z"/>
<path d="M9781 6983 c-46 -23 -111 -86 -111 -107 0 -29 28 -29 67 1 21 16 54
39 73 51 68 42 77 52 60 62 -22 14 -51 12 -89 -7z"/>
<path d="M10993 6943 l-108 -57 -130 -6 -130 -5 55 -32 c47 -28 65 -33 119
-33 60 0 72 4 160 54 102 58 189 96 221 96 26 0 26 16 1 30 -39 20 -81 10
-188 -47z"/>
<path d="M11371 6947 c-6 -6 -11 -16 -11 -23 0 -15 54 -40 103 -47 51 -8 47
17 -8 47 -57 32 -71 36 -84 23z"/>
<path d="M9518 6749 c-9 -5 -53 -52 -97 -104 -72 -84 -181 -175 -210 -175 -11
0 -31 -32 -31 -48 0 -35 109 -4 173 49 47 39 197 237 197 260 0 23 -11 30 -32
18z"/>
<path d="M10168 6718 c-8 -7 -28 -31 -43 -53 -75 -105 -124 -142 -247 -186
-45 -16 -86 -33 -91 -38 -19 -19 26 -25 104 -13 89 13 140 36 186 84 34 35
123 184 123 205 0 16 -12 17 -32 1z"/>
<path d="M10988 6607 c-62 -47 -96 -109 -104 -185 -6 -51 -15 -76 -50 -130
-33 -51 -44 -77 -44 -108 0 -52 29 -91 75 -100 69 -13 125 43 145 144 30 154
27 149 100 207 75 60 98 102 81 148 -15 39 -49 57 -107 57 -44 0 -60 -5 -96
-33z m131 -35 c15 -27 4 -54 -31 -79 -24 -17 -36 -20 -57 -12 -25 9 -25 9 -6
-7 19 -16 19 -16 -8 -10 -26 6 -28 5 -22 -14 8 -24 -2 -73 -13 -66 -4 2 -8
-13 -8 -33 -3 -68 -25 -151 -47 -176 -22 -24 -67 -38 -66 -20 1 6 6 9 13 7 6
-1 3 4 -7 12 -17 13 -17 17 -5 39 7 13 23 42 34 63 12 22 25 55 29 74 4 19 12
46 17 60 7 20 11 22 18 10 7 -11 10 -12 10 -2 0 7 4 11 9 8 5 -4 5 9 1 30 -6
26 -5 34 3 31 7 -2 18 2 25 9 10 12 10 14 -3 14 -9 0 -13 5 -10 10 4 6 10 8
15 5 4 -3 10 4 13 15 3 10 20 26 38 34 45 19 47 19 58 -2z m-94 -130 c-3 -3
-11 0 -18 7 -9 10 -8 11 6 5 10 -3 15 -9 12 -12z"/>
<path d="M11062 6545 c-10 -17 -13 -18 -22 -5 -8 13 -10 13 -10 -1 0 -23 52
-30 70 -10 12 13 12 14 -2 8 -11 -4 -18 0 -20 11 -3 15 -5 15 -16 -3z"/>
<path d="M11030 6500 c0 -5 5 -10 11 -10 5 0 7 5 4 10 -3 6 -8 10 -11 10 -2 0
-4 -4 -4 -10z"/>
<path d="M10128 6136 c-88 -31 -138 -95 -158 -201 -18 -93 -6 -153 52 -264 64
-123 147 -201 277 -258 83 -36 90 -38 201 -38 97 0 124 4 175 24 111 43 195
156 195 261 0 38 -63 206 -100 264 -55 90 -180 172 -318 207 -90 23 -266 25
-324 5z"/>
<path d="M10973 5439 c-43 -13 -68 -50 -53 -78 17 -32 60 -49 151 -61 46 -5
109 -17 139 -25 30 -8 78 -15 107 -15 119 0 144 106 40 171 -35 22 -79 21
-155 -2 -35 -11 -48 -11 -75 0 -42 18 -113 23 -154 10z m264 -66 c84 5 123 -7
123 -37 0 -15 -103 -14 -165 2 -22 6 -71 13 -110 17 -85 8 -115 15 -115 25 0
15 53 15 120 2 39 -8 98 -12 147 -9z"/>
<path d="M10215 5305 c-5 -3 -45 -9 -88 -14 -123 -15 -151 -58 -78 -124 43
-39 94 -52 163 -42 41 6 47 4 115 -49 86 -64 154 -85 223 -66 59 16 84 44 77
88 -8 46 -40 79 -85 86 -52 9 -91 25 -137 57 -94 63 -146 81 -190 64z m107
-95 c21 -12 35 -27 31 -33 -3 -5 -2 -7 4 -4 5 3 36 -5 69 -18 32 -14 69 -25
80 -25 12 0 32 -8 44 -18 20 -16 20 -19 6 -31 -22 -19 -104 -5 -152 25 -29 19
-33 23 -14 18 18 -4 22 -3 15 5 -6 6 -19 12 -30 14 -11 2 -37 11 -59 20 -21 9
-61 17 -88 17 -63 0 -142 20 -130 32 5 5 28 12 51 14 23 3 52 9 64 13 26 10
59 1 109 -29z"/>
<path d="M10428 5113 c6 -2 18 -2 25 0 6 3 1 5 -13 5 -14 0 -19 -2 -12 -5z"/>
<path d="M11227 5109 c-197 -29 -291 -168 -243 -359 26 -101 64 -167 146 -250
166 -169 437 -258 585 -192 58 27 75 41 126 105 56 70 74 140 59 225 -30 176
-136 303 -333 400 -142 70 -226 88 -340 71z"/>
<path d="M11998 4550 c-21 -16 -59 -97 -92 -193 -8 -25 20 -76 60 -110 32 -27
94 -139 94 -170 0 -9 13 -18 31 -22 66 -15 102 62 79 170 -7 33 -16 108 -20
166 -8 113 -21 147 -68 168 -33 16 -56 14 -84 -9z m74 -166 c-3 -87 0 -118 12
-142 9 -17 16 -53 15 -79 l0 -48 -25 67 c-13 37 -38 81 -55 98 -30 30 -31 33
-26 104 6 91 19 118 55 114 l27 -3 -3 -111z"/>
<path d="M12023 4325 c0 -8 4 -12 9 -9 4 3 8 9 8 15 0 5 -4 9 -8 9 -5 0 -9 -7
-9 -15z"/>
<path d="M9594 7351 c-73 -21 -130 -53 -206 -116 -82 -67 -127 -131 -219 -310
-142 -279 -176 -317 -333 -374 -53 -20 -72 -32 -74 -47 -5 -37 21 -48 80 -34
91 22 140 51 218 129 66 66 83 93 139 206 171 350 252 437 484 520 97 35 19
58 -89 26z"/>
<path d="M9249 7292 c-73 -55 -120 -127 -185 -280 -50 -116 -72 -157 -118
-214 -34 -44 -29 -56 15 -38 66 28 122 105 186 260 49 119 86 189 122 234 29
37 40 66 24 66 -5 0 -24 -13 -44 -28z"/>
<path d="M8060 6573 c0 -5 19 -36 42 -70 27 -40 46 -59 52 -53 6 6 -3 28 -24
58 -31 46 -70 82 -70 65z"/>
<path d="M8571 6375 c-71 -77 -104 -184 -66 -215 25 -21 42 -4 85 87 67 140
56 210 -19 128z"/>
<path d="M8476 5993 c-21 -21 11 -132 47 -162 30 -24 32 15 3 78 -14 32 -26
63 -26 69 0 14 -15 23 -24 15z"/>
<path d="M7996 5848 c20 -146 43 -210 90 -247 31 -25 57 -27 74 -6 10 12 7 21
-16 51 -56 70 -76 100 -105 156 -16 32 -29 64 -29 73 0 8 -5 15 -10 15 -6 0
-8 -17 -4 -42z"/>
<path d="M8142 5756 c12 -28 38 -43 38 -22 0 13 -31 46 -43 46 -4 0 -2 -11 5
-24z"/>
<path d="M12284 5335 c-10 -26 27 -123 84 -218 78 -132 159 -302 177 -372 8
-33 19 -102 24 -154 12 -108 22 -127 45 -83 11 21 16 58 16 118 0 148 -62 300
-215 525 -39 58 -82 126 -94 152 -25 51 -29 55 -37 32z"/>
<path d="M12440 5269 c0 -11 134 -235 151 -253 5 -5 12 -6 16 -2 9 9 -65 153
-113 219 -33 45 -54 59 -54 36z"/>
<path d="M12511 4313 c-15 -52 -14 -76 5 -123 15 -37 39 -60 62 -60 12 0 3
178 -10 203 -16 31 -46 21 -57 -20z"/>
<path d="M12634 3903 c3 -42 8 -78 11 -81 2 -3 11 1 20 8 31 25 12 150 -23
150 -12 0 -14 -13 -8 -77z"/>
<path d="M13162 3793 c-8 -29 -31 -86 -53 -128 -21 -43 -39 -81 -39 -86 0 -21
22 -6 50 33 37 51 62 133 58 190 l-3 43 -13 -52z"/>
</g>
</svg>
